<svg id="Layer_1" data-name="Layer 1" xmlns="http://www.w3.org/2000/svg" viewBox="0 0 676.71 361.38"><title>speed</title><path d="M600.59,320.21a13.23,13.23,0,0,0-6.38,7.57c-.88,3.09-.88,30.66-.06,33.75,2.78,9.9,16.21,11.79,22.14,3.15,1.52-2.21,1.52-2.27,1.52-20V326.9L616,324.31C612.76,319.64,605.63,317.69,600.59,320.21Z" transform="translate(-261.11 -319.1)"/><path d="M516.24,329.48c-4.47,2-7.82,8.2-6.93,12.93.82,4.42,7.38,28.08,8.2,29.65a12.06,12.06,0,0,0,13.69,6.37,12.32,12.32,0,0,0,9.33-11.6c0-3.28-7.32-30.41-9-33.06-1.89-3.09-5.93-5.17-10-5.17A18.4,18.4,0,0,0,516.24,329.48Z" transform="translate(-261.11 -319.1)"/><path d="M683.6,333c-4.23,2.28-5.23,4.36-9.34,19.62-3.91,14.45-4.41,17.86-3.15,21.64s7.07,8,11.36,8c4.66,0,10.09-4.1,11.6-8.71,2.59-7.94,7.32-27.44,7.32-30,0-6.88-5.11-11.74-12.11-11.74A14.2,14.2,0,0,0,683.6,333Z" transform="translate(-261.11 -319.1)"/><path d="M435.5,361.34a12.16,12.16,0,0,0-6.94,12.93c.51,3.22,14.13,26.87,17.29,30.09,6.37,6.43,17.41,3.41,20-5.42,1.07-3.73.82-5.49-1.32-9.78-2.65-5.24-13.63-23.66-15-25.11A12.22,12.22,0,0,0,435.5,361.34Z" transform="translate(-261.11 -319.1)"/><path d="M761.32,366.39c-3.41,1.82-4.42,3.28-11.86,16.21s-8.33,15-8.33,18.48c.06,10.09,13.19,15.64,20.38,8.71,3.15-3.1,16.78-27.45,17.22-30.91C780.05,369.48,769.58,362,761.32,366.39Z" transform="translate(-261.11 -319.1)"/><path d="M364.53,414.52A11.46,11.46,0,0,0,358,424.93,12.83,12.83,0,0,0,359,430.6c1.33,2.53,21.14,22.08,24.29,24,2.59,1.58,7.57,2,10.66.76,4-1.51,7.76-6.88,7.76-11.29a14.14,14.14,0,0,0-1.2-4.73C399,436,378.16,415.4,375.07,414.08A12.82,12.82,0,0,0,364.53,414.52Z" transform="translate(-261.11 -319.1)"/><path d="M826.61,417.17c-2.34,1.07-23.15,22.07-24.48,24.66a12.4,12.4,0,0,0,1.26,13.5c3,3.91,9.53,5.61,14.32,3.6,2.59-1.08,22.9-21.64,24.86-25.11a12.2,12.2,0,0,0,1.39-5.17c-.07-4.8-3.6-10.1-7.76-11.67A16,16,0,0,0,826.61,417.17Z" transform="translate(-261.11 -319.1)"/><path d="M316,479.74c-5.55,2-7.89,4-9.34,8.39a11.27,11.27,0,0,0,3,12.05c1.26,1.26,8.07,5.55,15.2,9.53,12.87,7.13,12.93,7.19,17.16,7.19,3.72,0,4.42-.19,6.56-2,4.29-3.47,5-4.85,5-10,0-6.68-1.19-8-14.57-15.58-5.86-3.34-12.11-6.87-13.94-7.76C321.7,479.87,317.73,479.11,316,479.74Z" transform="translate(-261.11 -319.1)"/><path d="M877.07,482.71c-3.47,1.58-25.23,15.07-26.93,16.71-5.87,5.49-4.17,15.71,3.28,19.56a9.12,9.12,0,0,0,6.24,1.14c3-.26,5-1.27,15.77-7.76,6.75-4.1,13.25-8.2,14.32-9.21A12.31,12.31,0,0,0,888.68,484C885.65,482,880.16,481.32,877.07,482.71Z" transform="translate(-261.11 -319.1)"/><path d="M689.47,592.6c-56.71,31.66-104,58.41-105,59.36a12.28,12.28,0,0,0-2.27,14.32c2.14,4.16,6,9.58,8.14,11.35a12.24,12.24,0,0,0,9.77,2.71c2.34-.37,4.23-1.45,9.66-5.61C656.16,639.47,792,535.82,792.54,535.44c.32-.31.45-.56.32-.56S746.18,560.87,689.47,592.6Z" transform="translate(-261.11 -319.1)"/><path d="M283.47,558c-.69.12-1.89.38-2.71.57a12.43,12.43,0,0,0-3.91,2.52c-6.37,5.74-4.92,16.27,2.71,19.87,1.45.63,8.9,2.78,16.53,4.73,15.33,3.91,17.6,4,21.89,1.2,6.81-4.48,6.81-15.71,0-20.12-1.52-1-7.51-2.91-17.35-5.37-8.2-2.14-15.14-3.78-15.45-3.78S284.17,557.84,283.47,558Z" transform="translate(-261.11 -319.1)"/><path d="M898.21,566c-7.45,2.21-14.51,4.41-15.65,5.05a13.54,13.54,0,0,0-3.78,3.65c-1.45,2.21-1.71,3.28-1.71,6.82s.26,4.6,1.77,6.81a11.33,11.33,0,0,0,9.9,5.17c3.79,0,28.64-6.94,32.36-9a12.23,12.23,0,0,0,5.49-13.18,12.06,12.06,0,0,0-12-9.27C913,562.13,905.65,563.89,898.21,566Z" transform="translate(-261.11 -319.1)"/><path d="M901.61,642.68c-6.18.32-7.25.57-9.52,2.09a12.05,12.05,0,0,0-2,18.86c3.66,3.66,5.42,3.91,23.28,3.28,15.26-.51,15.51-.57,18.42-2.27a10.41,10.41,0,0,0,4.54-5c2.39-4.79,2-9.27-1.33-13.18-3.15-3.72-5.61-4.35-16.59-4.23C913,642.31,905.46,642.49,901.61,642.68Z" transform="translate(-261.11 -319.1)"/><path d="M275,644c-7.13.44-9.84,1.76-12.37,6.11-1.45,2.46-1.64,3.35-1.39,6.88.19,3.34.57,4.48,2.21,6.43,3.91,4.92,4.1,4.92,22.59,4.74,17.66-.26,19.17-.51,22.52-3.73,4.16-4,4.73-11.54,1.26-15.89a16.64,16.64,0,0,0-4.54-3.72c-2.59-1.27-3.54-1.39-13.57-1.27C285.81,643.57,278.24,643.76,275,644Z" transform="translate(-261.11 -319.1)"/></svg>