<svg id="Layer_1" data-name="Layer 1" xmlns="http://www.w3.org/2000/svg" viewBox="0 0 676.71 361.39"><title>speed-1</title><path id="seven" d="M339.48,1.11a13.23,13.23,0,0,0-6.38,7.57c-.88,3.09-.88,30.66-.06,33.75,2.78,9.9,16.21,11.79,22.14,3.15,1.52-2.21,1.52-2.27,1.52-20V7.8l-1.81-2.59C351.65.54,344.52-1.41,339.48,1.11Z" transform="translate(-0.04 0)"/><path id="six" d="M255.13,10.38c-4.47,2-7.82,8.2-6.93,12.93.82,4.42,7.38,28.08,8.2,29.65a12.06,12.06,0,0,0,13.69,6.37,12.32,12.32,0,0,0,9.33-11.6c0-3.28-7.32-30.41-9-33.06-1.89-3.09-5.93-5.17-10-5.17A18.26,18.26,0,0,0,255.13,10.38Z" transform="translate(-0.04 0)"/><path id="eight" d="M422.49,13.9c-4.23,2.28-5.23,4.36-9.34,19.62C409.24,48,408.74,51.38,410,55.16s7.07,8,11.36,8c4.66,0,10.09-4.1,11.6-8.71,2.59-7.94,7.32-27.44,7.32-30,0-6.88-5.11-11.74-12.11-11.74A14.21,14.21,0,0,0,422.49,13.9Z" transform="translate(-0.04 0)"/><path id="five" d="M174.39,42.24a12.15,12.15,0,0,0-6.94,12.93C168,58.39,181.58,82,184.74,85.26c6.37,6.43,17.41,3.41,20-5.42,1.07-3.73.82-5.49-1.32-9.78-2.65-5.24-13.63-23.66-15-25.11A12.22,12.22,0,0,0,174.39,42.24Z" transform="translate(-0.04 0)"/><path id="nine" d="M500.21,47.29c-3.41,1.82-4.42,3.28-11.86,16.21S480,78.5,480,82c.06,10.09,13.19,15.64,20.38,8.71,3.15-3.1,16.78-27.45,17.22-30.91C518.94,50.38,508.47,42.9,500.21,47.29Z" transform="translate(-0.04 0)"/><path id="four" d="M103.42,95.42a11.45,11.45,0,0,0-6.53,10.41,12.82,12.82,0,0,0,1,5.67c1.33,2.53,21.14,22.08,24.29,24a13.89,13.89,0,0,0,10.66.76c4-1.51,7.76-6.88,7.76-11.29a14.15,14.15,0,0,0-1.2-4.73C137.89,116.9,117.05,96.3,114,95A12.84,12.84,0,0,0,103.42,95.42Z" transform="translate(-0.04 0)"/><path id="ten" d="M565.5,98.07c-2.34,1.07-23.15,22.07-24.48,24.66a12.39,12.39,0,0,0,1.26,13.5c3,3.91,9.53,5.61,14.32,3.6,2.59-1.08,22.9-21.64,24.86-25.11a12.16,12.16,0,0,0,1.39-5.17c-.07-4.8-3.6-10.1-7.76-11.67A16,16,0,0,0,565.5,98.07Z" transform="translate(-0.04 0)"/><path id="three" d="M54.89,160.64c-5.55,2-7.89,4-9.34,8.39a11.27,11.27,0,0,0,3,12.05c1.26,1.26,8.07,5.55,15.2,9.53,12.87,7.13,12.93,7.19,17.16,7.19,3.72,0,4.42-.19,6.56-2,4.29-3.47,5-4.85,5-10,0-6.68-1.19-8-14.57-15.58C72,166.88,65.79,163.35,64,162.46,60.59,160.77,56.62,160,54.89,160.64Z" transform="translate(-0.04 0)"/><path id="eleven" d="M616,163.61c-3.47,1.58-25.23,15.07-26.93,16.71-5.87,5.49-4.17,15.71,3.28,19.56a9.14,9.14,0,0,0,6.24,1.14c3-.26,5-1.27,15.77-7.76,6.75-4.1,13.25-8.2,14.32-9.21a12.32,12.32,0,0,0,.9-17.39,12.71,12.71,0,0,0-2-1.76C624.54,162.9,619.05,162.22,616,163.61Z" transform="translate(-0.04 0)"/><path id="arrow" d="M428.36,273.5c-56.71,31.66-104,58.41-105,59.36a12.29,12.29,0,0,0-2.27,14.32c2.14,4.16,6,9.58,8.14,11.35a12.25,12.25,0,0,0,9.77,2.71c2.34-.37,4.23-1.45,9.66-5.61,46.39-35.26,182.23-138.91,182.77-139.29.32-.31.45-.56.32-.56S485.07,241.77,428.36,273.5Z" transform="translate(-0.04 0)"/><path id="two" d="M22.36,238.9c-.69.12-1.89.38-2.71.57A12.43,12.43,0,0,0,15.74,242c-6.37,5.74-4.92,16.27,2.71,19.87,1.45.63,8.9,2.78,16.53,4.73,15.33,3.91,17.6,4,21.89,1.2,6.81-4.48,6.81-15.71,0-20.12-1.52-1-7.51-2.91-17.35-5.37-8.2-2.14-15.14-3.78-15.45-3.78A13.85,13.85,0,0,0,22.36,238.9Z" transform="translate(-0.04 0)"/><path id="twelve" d="M637.1,246.9c-7.45,2.21-14.51,4.41-15.65,5a13.55,13.55,0,0,0-3.78,3.65c-1.45,2.21-1.71,3.28-1.71,6.82s.26,4.6,1.77,6.81a11.32,11.32,0,0,0,9.9,5.17c3.79,0,28.64-6.94,32.36-9a12.23,12.23,0,0,0,5.49-13.18,12.05,12.05,0,0,0-12-9.27C651.89,243,644.54,244.79,637.1,246.9Z" transform="translate(-0.04 0)"/><path id="thirteen" d="M640.5,323.58c-6.18.32-7.25.57-9.52,2.09a12.05,12.05,0,0,0-3.82,16.61,11.58,11.58,0,0,0,1.82,2.25c3.66,3.66,5.42,3.91,23.28,3.28,15.26-.51,15.51-.57,18.42-2.27a10.46,10.46,0,0,0,4.54-5c2.39-4.79,2-9.27-1.33-13.18-3.15-3.72-5.61-4.35-16.59-4.23C651.89,323.21,644.35,323.39,640.5,323.58Z" transform="translate(-0.04 0)"/><path id="one" d="M13.89,324.9c-7.13.44-9.84,1.76-12.37,6.11-1.45,2.46-1.64,3.35-1.39,6.88.19,3.34.57,4.48,2.21,6.43,3.91,4.92,4.1,4.92,22.59,4.74,17.66-.26,19.17-.51,22.52-3.73,4.16-4,4.73-11.54,1.26-15.89a16.62,16.62,0,0,0-4.54-3.72c-2.59-1.27-3.54-1.39-13.57-1.27C24.7,324.47,17.13,324.66,13.89,324.9Z" transform="translate(-0.04 0)"/></svg>